<?xml version="1.0" encoding="utf-8"?>
<!-- Generator: Adobe Illustrator 26.5.0, SVG Export Plug-In . SVG Version: 6.00 Build 0)  -->
<svg version="1.1" id="Layer_1" xmlns="http://www.w3.org/2000/svg" xmlns:xlink="http://www.w3.org/1999/xlink" x="0px" y="0px"
	 viewBox="0 0 512 512" style="enable-background:new 0 0 512 512;" xml:space="preserve">
<style type="text/css">
	.st0{fill:#243C80;}
	.st1{fill:#FFFFFF;}
</style>
<g id="XMLID_15_">
	<path id="XMLID_17_" class="st0" d="M302.37,5.85v46.52c62.17,0.29,130.19-0.59,192.37,0.29c10.39-0.15,16.53,4.39,16.68,15.8
		c1.02,114.54-0.29,235.67,0.59,350.35c-0.29,7.17,0.15,20.48-1.02,27.79c-1.46,9.36-5.56,11.12-14.92,12.29
		c-5.27,0.73-14.04,0.59-19.16,0.88c-51.05-0.29-102.11-0.15-153.16-0.15h-21.5v21.5v25.01L0,459.63C0,323.88,0,188.27,0,52.52
		L302.37,5.85z"/>
	<path id="XMLID_21_" class="st1" d="M302.37,69.92c63.93,0,128,0,191.93,0c0,124.05,0,248.25,0,372.3c-63.93,0-128,0-191.93,0
		c0-15.51,0-31.01,0-46.52c50.47,0,100.79,0,151.26,0c0-7.75,0-15.51,0-23.26c-50.47,0-100.79,0-151.26,0c0-9.65,0-19.31,0-29.11
		c50.47,0,100.79,0,151.26,0c0-7.75,0-15.51,0-23.26c-50.47,0-100.79,0-151.26,0c0-9.65,0-19.31,0-29.11c50.47,0,100.79,0,151.26,0
		c0-7.75,0-15.51,0-23.26c-50.47,0-100.79,0-151.26,0c0-9.65,0-19.31,0-29.11c50.47,0,100.79,0,151.26,0c0-7.75,0-15.51,0-23.26
		c-50.47,0-100.79,0-151.26,0c0-9.65,0-19.31,0-29.11c50.47,0,100.79,0,151.26,0c0-7.75,0-15.51,0-23.26c-50.47,0-100.79,0-151.26,0
		c0-9.65,0-19.31,0-29.11c50.47,0,100.79,0,151.26,0c0-7.75,0-15.51,0-23.26c-50.47,0-100.79,0-151.26,0
		C302.37,96.99,302.37,83.38,302.37,69.92z"/>
	<path id="XMLID_22_" class="st1" d="M120.25,172.62c11.12-0.59,22.09-1.17,33.21-1.76c7.75,39.2,15.65,78.41,23.99,117.61
		c6.58-40.37,13.9-80.6,20.92-120.98c11.7-0.44,23.26-1.02,34.82-1.76c-13.17,56.32-24.72,113.23-39.06,169.25
		c-9.65,5.12-24.28-0.29-35.84,0.59c-7.75-38.47-16.82-76.8-23.7-115.42c-6.88,37.6-15.65,74.75-23.41,112.2
		c-11.12-0.59-22.38-1.32-33.65-2.05c-9.65-51.2-21.07-101.96-29.99-153.31c9.95-0.44,19.89-0.88,29.84-1.17
		c6,37.01,12.73,73.87,17.99,111.03C103.72,248.69,112.05,210.65,120.25,172.62z"/>
</g>
</svg>
